<svg width="1000" height="520" viewBox="0 0 1000 520" xmlns="http://www.w3.org/2000/svg">
  <rect width="1000" height="520" rx="24" fill="#f4f6fb"></rect>

  <rect x="60" y="50" width="880" height="420" rx="22" fill="#ffffff" stroke="#d7dce8"></rect>

  <rect x="60" y="50" width="880" height="70" rx="22" fill="#3f51b5"></rect>
  <text x="95" y="95" font-family="Arial" font-size="28" font-weight="bold" fill="#ffffff">
    Panel del Sistema de Ventas
  </text>

  <rect x="95" y="155" width="190" height="95" rx="16" fill="#e8eaf6"></rect>
  <text x="120" y="190" font-family="Arial" font-size="18" fill="#303f9f">Ventas del día</text>
  <text x="120" y="230" font-family="Arial" font-size="34" font-weight="bold" fill="#1a237e">$ 1,250</text>

  <rect x="315" y="155" width="190" height="95" rx="16" fill="#e3f2fd"></rect>
  <text x="340" y="190" font-family="Arial" font-size="18" fill="#1565c0">Productos</text>
  <text x="340" y="230" font-family="Arial" font-size="34" font-weight="bold" fill="#0d47a1">145</text>

  <rect x="535" y="155" width="190" height="95" rx="16" fill="#e8f5e9"></rect>
  <text x="560" y="190" font-family="Arial" font-size="18" fill="#2e7d32">Clientes</text>
  <text x="560" y="230" font-family="Arial" font-size="34" font-weight="bold" fill="#1b5e20">82</text>

  <rect x="755" y="155" width="150" height="95" rx="16" fill="#fff3e0"></rect>
  <text x="780" y="190" font-family="Arial" font-size="18" fill="#ef6c00">Reportes</text>
  <text x="780" y="230" font-family="Arial" font-size="34" font-weight="bold" fill="#e65100">12</text>

  <rect x="95" y="295" width="390" height="130" rx="16" fill="#fafafa" stroke="#e0e0e0"></rect>
  <text x="120" y="330" font-family="Arial" font-size="20" font-weight="bold" fill="#263238">
    Últimas ventas
  </text>
  <line x1="120" y1="355" x2="455" y2="355" stroke="#cfd8dc"></line>
  <text x="120" y="385" font-family="Arial" font-size="16" fill="#455a64">Mouse inalámbrico - $15.99</text>
  <text x="120" y="410" font-family="Arial" font-size="16" fill="#455a64">Teclado mecánico - $45.00</text>

  <rect x="535" y="295" width="370" height="130" rx="16" fill="#fafafa" stroke="#e0e0e0"></rect>
  <text x="560" y="330" font-family="Arial" font-size="20" font-weight="bold" fill="#263238">
    Estado del inventario
  </text>
  <rect x="560" y="365" width="250" height="18" rx="9" fill="#c5cae9"></rect>
  <rect x="560" y="365" width="180" height="18" rx="9" fill="#3f51b5"></rect>
  <text x="560" y="410" font-family="Arial" font-size="16" fill="#455a64">
    Stock disponible: 72%
  </text>
</svg>